<mxfile host="Electron" modified="2024-05-11T09:33:00.971Z" agent="Mozilla/5.0 (X11; Linux x86_64) AppleWebKit/537.36 (KHTML, like Gecko) draw.io/24.2.5 Chrome/120.0.6099.109 Electron/28.1.0 Safari/537.36" etag="3V_6hZvbp3DmndE01cIn" version="24.2.5" type="device">
  <diagram name="Page-1" id="9Rp0s_cZFTEAjZsGl9QW">
    <mxGraphModel dx="1420" dy="824" grid="1" gridSize="10" guides="0" tooltips="1" connect="0" arrows="0" fold="1" page="1" pageScale="1" pageWidth="1654" pageHeight="1169" math="0" shadow="0">
      <root>
        <mxCell id="0" />
        <mxCell id="1" parent="0" />
        <mxCell id="Hv_uYBrX842Ujxgdl6rj-1" value="Бизнес-заказчик" style="shape=umlActor;verticalLabelPosition=bottom;verticalAlign=top;html=1;outlineConnect=0;comic=1;" vertex="1" parent="1">
          <mxGeometry x="390" y="177" width="30" height="60" as="geometry" />
        </mxCell>
        <mxCell id="Hv_uYBrX842Ujxgdl6rj-2" value="Описание инициативы (новые пожелания)" style="shape=note;whiteSpace=wrap;html=1;backgroundOutline=1;darkOpacity=0.05;comic=1;fillColor=#cce5ff;strokeColor=#36393d;" vertex="1" parent="1">
          <mxGeometry x="530" y="180" width="80" height="100" as="geometry" />
        </mxCell>
        <mxCell id="Hv_uYBrX842Ujxgdl6rj-3" style="edgeStyle=orthogonalEdgeStyle;rounded=1;orthogonalLoop=1;jettySize=auto;html=1;entryX=-0.025;entryY=0.35;entryDx=0;entryDy=0;entryPerimeter=0;curved=0;perimeterSpacing=5;enumerate=0;comic=1;" edge="1" parent="1" source="Hv_uYBrX842Ujxgdl6rj-1" target="Hv_uYBrX842Ujxgdl6rj-2">
          <mxGeometry relative="1" as="geometry">
            <mxPoint x="430" y="230" as="sourcePoint" />
            <Array as="points">
              <mxPoint x="450" y="215" />
              <mxPoint x="450" y="215" />
            </Array>
          </mxGeometry>
        </mxCell>
        <mxCell id="Hv_uYBrX842Ujxgdl6rj-4" value="Анализ бизнес-инициативы" style="shape=process;whiteSpace=wrap;html=1;backgroundOutline=1;comic=1;enumerate=1;enumerateValue=1;" vertex="1" parent="1">
          <mxGeometry x="690" y="260" width="130" height="90" as="geometry" />
        </mxCell>
        <mxCell id="Hv_uYBrX842Ujxgdl6rj-5" value="Бизнес-анатитик" style="shape=umlActor;verticalLabelPosition=bottom;verticalAlign=top;html=1;outlineConnect=0;comic=1;" vertex="1" parent="1">
          <mxGeometry x="740" y="170" width="30" height="60" as="geometry" />
        </mxCell>
        <mxCell id="Hv_uYBrX842Ujxgdl6rj-6" value="&lt;div&gt;Бизнес, функц.&lt;/div&gt;&lt;div&gt;т&lt;span style=&quot;background-color: initial;&quot;&gt;ребования&lt;/span&gt;&lt;/div&gt;" style="shape=note;whiteSpace=wrap;html=1;backgroundOutline=1;darkOpacity=0.05;comic=1;fillColor=#cce5ff;strokeColor=#36393d;" vertex="1" parent="1">
          <mxGeometry x="890" y="180" width="80" height="100" as="geometry" />
        </mxCell>
        <mxCell id="Hv_uYBrX842Ujxgdl6rj-7" style="edgeStyle=orthogonalEdgeStyle;rounded=1;orthogonalLoop=1;jettySize=auto;html=1;curved=0;perimeterSpacing=5;enumerate=0;comic=1;" edge="1" parent="1" target="Hv_uYBrX842Ujxgdl6rj-4">
          <mxGeometry relative="1" as="geometry">
            <mxPoint x="610" y="225" as="sourcePoint" />
            <mxPoint x="693" y="200" as="targetPoint" />
            <Array as="points">
              <mxPoint x="660" y="225" />
              <mxPoint x="660" y="305" />
            </Array>
          </mxGeometry>
        </mxCell>
        <mxCell id="Hv_uYBrX842Ujxgdl6rj-8" style="edgeStyle=orthogonalEdgeStyle;rounded=1;orthogonalLoop=1;jettySize=auto;html=1;curved=0;perimeterSpacing=5;enumerate=0;comic=1;entryX=-0.037;entryY=0.42;entryDx=0;entryDy=0;entryPerimeter=0;orthogonal=1;" edge="1" parent="1" source="Hv_uYBrX842Ujxgdl6rj-4" target="Hv_uYBrX842Ujxgdl6rj-6">
          <mxGeometry relative="1" as="geometry">
            <mxPoint x="870" y="340" as="sourcePoint" />
            <mxPoint x="945" y="420" as="targetPoint" />
          </mxGeometry>
        </mxCell>
        <mxCell id="Hv_uYBrX842Ujxgdl6rj-9" value="Проработка архитектуры решения" style="shape=process;whiteSpace=wrap;html=1;backgroundOutline=1;comic=1;enumerate=1;enumerateValue=2;" vertex="1" parent="1">
          <mxGeometry x="1020" y="260" width="130" height="90" as="geometry" />
        </mxCell>
        <mxCell id="Hv_uYBrX842Ujxgdl6rj-10" value="Архитектор" style="shape=umlActor;verticalLabelPosition=bottom;verticalAlign=top;html=1;outlineConnect=0;comic=1;" vertex="1" parent="1">
          <mxGeometry x="1070" y="170" width="30" height="60" as="geometry" />
        </mxCell>
        <mxCell id="Hv_uYBrX842Ujxgdl6rj-11" value="Работа в ИТ-системах" style="shape=process;whiteSpace=wrap;html=1;backgroundOutline=1;comic=1;enumerate=1;enumerateValue=0;" vertex="1" parent="1">
          <mxGeometry x="330" y="260" width="130" height="90" as="geometry" />
        </mxCell>
        <mxCell id="Hv_uYBrX842Ujxgdl6rj-12" style="edgeStyle=orthogonalEdgeStyle;rounded=1;orthogonalLoop=1;jettySize=auto;html=1;curved=0;perimeterSpacing=5;enumerate=0;comic=1;entryX=0.015;entryY=0.478;entryDx=0;entryDy=0;entryPerimeter=0;orthogonal=1;" edge="1" parent="1" source="Hv_uYBrX842Ujxgdl6rj-6" target="Hv_uYBrX842Ujxgdl6rj-9">
          <mxGeometry relative="1" as="geometry">
            <mxPoint x="960" y="283" as="sourcePoint" />
            <mxPoint x="1022" y="200" as="targetPoint" />
          </mxGeometry>
        </mxCell>
        <mxCell id="Hv_uYBrX842Ujxgdl6rj-13" value="&lt;div&gt;Архитектура ПА-L1 TO-BE&amp;nbsp;&lt;/div&gt;" style="shape=note;whiteSpace=wrap;html=1;backgroundOutline=1;darkOpacity=0.05;comic=1;fillColor=#cce5ff;strokeColor=#36393d;" vertex="1" parent="1">
          <mxGeometry x="1190" y="360" width="80" height="100" as="geometry" />
        </mxCell>
        <mxCell id="Hv_uYBrX842Ujxgdl6rj-14" style="edgeStyle=orthogonalEdgeStyle;rounded=1;orthogonalLoop=1;jettySize=auto;html=1;curved=0;perimeterSpacing=5;enumerate=0;comic=1;orthogonal=1;" edge="1" parent="1" source="Hv_uYBrX842Ujxgdl6rj-9" target="Hv_uYBrX842Ujxgdl6rj-13">
          <mxGeometry relative="1" as="geometry">
            <mxPoint x="1180" y="300" as="sourcePoint" />
            <mxPoint x="1227" y="373" as="targetPoint" />
          </mxGeometry>
        </mxCell>
        <mxCell id="Hv_uYBrX842Ujxgdl6rj-15" value="Разработка нового функционала в ИТ-системах и интеграциях" style="shape=process;whiteSpace=wrap;html=1;backgroundOutline=1;comic=1;enumerate=1;enumerateValue=3;" vertex="1" parent="1">
          <mxGeometry x="910" y="494" width="180" height="90" as="geometry" />
        </mxCell>
        <mxCell id="Hv_uYBrX842Ujxgdl6rj-16" value="Команды ИТ-продуктов" style="shape=umlActor;verticalLabelPosition=bottom;verticalAlign=top;html=1;outlineConnect=0;comic=1;" vertex="1" parent="1">
          <mxGeometry x="977" y="404" width="30" height="60" as="geometry" />
        </mxCell>
        <mxCell id="Hv_uYBrX842Ujxgdl6rj-17" value="" style="shape=umlActor;verticalLabelPosition=bottom;verticalAlign=top;html=1;outlineConnect=0;comic=1;" vertex="1" parent="1">
          <mxGeometry x="997" y="414" width="30" height="60" as="geometry" />
        </mxCell>
        <mxCell id="Hv_uYBrX842Ujxgdl6rj-18" style="edgeStyle=orthogonalEdgeStyle;rounded=1;orthogonalLoop=1;jettySize=auto;html=1;curved=0;perimeterSpacing=5;enumerate=0;comic=1;orthogonal=1;" edge="1" parent="1" source="Hv_uYBrX842Ujxgdl6rj-13" target="Hv_uYBrX842Ujxgdl6rj-15">
          <mxGeometry relative="1" as="geometry">
            <mxPoint x="1160" y="534" as="sourcePoint" />
            <mxPoint x="1225" y="594" as="targetPoint" />
            <Array as="points">
              <mxPoint x="1220" y="540" />
              <mxPoint x="1135" y="540" />
              <mxPoint x="1135" y="539" />
            </Array>
          </mxGeometry>
        </mxCell>
        <mxCell id="Hv_uYBrX842Ujxgdl6rj-19" value="Примемка нового функционала" style="shape=process;whiteSpace=wrap;html=1;backgroundOutline=1;comic=1;enumerate=1;enumerateValue=4;" vertex="1" parent="1">
          <mxGeometry x="440" y="494" width="220" height="90" as="geometry" />
        </mxCell>
        <mxCell id="Hv_uYBrX842Ujxgdl6rj-20" value="" style="shape=note;whiteSpace=wrap;html=1;backgroundOutline=1;darkOpacity=0.05;comic=1;fillColor=#cce5ff;strokeColor=#36393d;" vertex="1" parent="1">
          <mxGeometry x="760" y="394" width="80" height="100" as="geometry" />
        </mxCell>
        <mxCell id="Hv_uYBrX842Ujxgdl6rj-21" value="&lt;div&gt;доработанные ИТ-системы и интеграции&lt;/div&gt;" style="shape=note;whiteSpace=wrap;html=1;backgroundOutline=1;darkOpacity=0.05;comic=1;fillColor=#cce5ff;strokeColor=#36393d;" vertex="1" parent="1">
          <mxGeometry x="740" y="404" width="80" height="100" as="geometry" />
        </mxCell>
        <mxCell id="Hv_uYBrX842Ujxgdl6rj-22" style="edgeStyle=orthogonalEdgeStyle;rounded=1;orthogonalLoop=1;jettySize=auto;html=1;curved=0;perimeterSpacing=5;enumerate=0;comic=1;orthogonal=1;exitX=-0.01;exitY=0.444;exitDx=0;exitDy=0;exitPerimeter=0;entryX=1.013;entryY=0.55;entryDx=0;entryDy=0;entryPerimeter=0;" edge="1" parent="1" source="Hv_uYBrX842Ujxgdl6rj-15" target="Hv_uYBrX842Ujxgdl6rj-20">
          <mxGeometry relative="1" as="geometry">
            <mxPoint x="850" y="544" as="sourcePoint" />
            <mxPoint x="770" y="639" as="targetPoint" />
          </mxGeometry>
        </mxCell>
        <mxCell id="Hv_uYBrX842Ujxgdl6rj-23" value="Бизнес-&lt;div&gt;заказчик&lt;/div&gt;" style="shape=umlActor;verticalLabelPosition=bottom;verticalAlign=top;html=1;outlineConnect=0;comic=1;" vertex="1" parent="1">
          <mxGeometry x="459" y="394" width="30" height="60" as="geometry" />
        </mxCell>
        <mxCell id="Hv_uYBrX842Ujxgdl6rj-24" value="Команды&amp;nbsp;&lt;div&gt;ИТ-продуктов&lt;/div&gt;" style="shape=umlActor;verticalLabelPosition=bottom;verticalAlign=top;html=1;outlineConnect=0;comic=1;" vertex="1" parent="1">
          <mxGeometry x="526" y="395" width="30" height="60" as="geometry" />
        </mxCell>
        <mxCell id="Hv_uYBrX842Ujxgdl6rj-25" value="Архитектор" style="shape=umlActor;verticalLabelPosition=bottom;verticalAlign=top;html=1;outlineConnect=0;comic=1;" vertex="1" parent="1">
          <mxGeometry x="594" y="399" width="30" height="60" as="geometry" />
        </mxCell>
        <mxCell id="Hv_uYBrX842Ujxgdl6rj-26" value="Новый функционал в ПРОМе" style="shape=note;whiteSpace=wrap;html=1;backgroundOutline=1;darkOpacity=0.05;comic=1;fillColor=#cce5ff;strokeColor=#36393d;" vertex="1" parent="1">
          <mxGeometry x="250" y="380" width="80" height="100" as="geometry" />
        </mxCell>
        <mxCell id="Hv_uYBrX842Ujxgdl6rj-27" style="edgeStyle=orthogonalEdgeStyle;rounded=1;orthogonalLoop=1;jettySize=auto;html=1;curved=0;perimeterSpacing=5;enumerate=0;comic=1;orthogonal=1;" edge="1" parent="1" source="Hv_uYBrX842Ujxgdl6rj-21" target="Hv_uYBrX842Ujxgdl6rj-19">
          <mxGeometry relative="1" as="geometry">
            <mxPoint x="766.96" y="585" as="sourcePoint" />
            <mxPoint x="719.96" y="500" as="targetPoint" />
          </mxGeometry>
        </mxCell>
        <mxCell id="Hv_uYBrX842Ujxgdl6rj-28" style="edgeStyle=orthogonalEdgeStyle;rounded=1;orthogonalLoop=1;jettySize=auto;html=1;curved=0;perimeterSpacing=5;enumerate=0;comic=1;orthogonal=1;entryX=0.563;entryY=0.99;entryDx=0;entryDy=0;entryPerimeter=0;" edge="1" parent="1" source="Hv_uYBrX842Ujxgdl6rj-19" target="Hv_uYBrX842Ujxgdl6rj-26">
          <mxGeometry relative="1" as="geometry">
            <mxPoint x="410" y="480" as="sourcePoint" />
            <mxPoint x="340" y="565" as="targetPoint" />
          </mxGeometry>
        </mxCell>
        <mxCell id="Hv_uYBrX842Ujxgdl6rj-29" style="edgeStyle=orthogonalEdgeStyle;rounded=1;orthogonalLoop=1;jettySize=auto;html=1;curved=0;perimeterSpacing=5;enumerate=0;comic=1;orthogonal=1;" edge="1" parent="1" source="Hv_uYBrX842Ujxgdl6rj-26" target="Hv_uYBrX842Ujxgdl6rj-11">
          <mxGeometry relative="1" as="geometry">
            <mxPoint x="380" y="220" as="sourcePoint" />
            <mxPoint x="240" y="160" as="targetPoint" />
            <Array as="points">
              <mxPoint x="290" y="300" />
            </Array>
          </mxGeometry>
        </mxCell>
      </root>
    </mxGraphModel>
  </diagram>
</mxfile>
